<svg xmlns="http://www.w3.org/2000/svg" xmlns:xlink="http://www.w3.org/1999/xlink" version="1.1" x="0px" y="0px" viewBox="0 0 94.8 157.5" style="enable-background:new 0 0 94.8 126;" xml:space="preserve"><g><circle cx="51.721" cy="39" r="2"/><circle cx="31.721" cy="39" r="2"/><path d="M44.993,43.933c0.531-0.15,0.84-0.703,0.689-1.234c-0.15-0.531-0.705-0.842-1.234-0.689c-1.814,0.514-3.644,0.514-5.455,0   c-0.528-0.152-1.084,0.158-1.234,0.689c-0.151,0.531,0.158,1.084,0.689,1.234c1.083,0.308,2.184,0.463,3.272,0.463   C42.808,44.396,43.909,44.24,44.993,43.933z"/><path d="M23.699,15.053c1.152,0,2.085-0.934,2.085-2.085c0-1.152-0.934-2.085-2.085-2.085c-1.152,0-2.085,0.934-2.085,2.085   C21.614,14.12,22.548,15.053,23.699,15.053z"/><path d="M59.742,15.053c1.152,0,2.085-0.934,2.085-2.085c0-1.152-0.934-2.085-2.085-2.085c-1.152,0-2.085,0.934-2.085,2.085   C57.657,14.12,58.59,15.053,59.742,15.053z"/><path d="M92.139,56.745c-3.577-3.165-7.549-1.589-9.156-0.309c-1.743,1.416-3.315,2.931-4.745,4.533   c-0.064,0.05-0.111,0.112-0.16,0.176c-4.938,5.596-8.003,12.333-9.235,20.351c-0.014,0.058-0.02,0.115-0.023,0.174   c-0.368,2.451-0.571,5.018-0.601,7.711c-6.919-8.659-14.718-12.487-19.5-14.119l0.002-5.715c18.296-2.414,29-14.566,29-33.548   c0-0.321-0.016-0.638-0.024-0.957c0-0.039,0.002-0.077-0.003-0.115c-0.146-4.961-1.298-9.672-3.263-13.937   c1.923-0.81,6.732-3.019,8.124-5.387c1.059-1.8,1.678-6.301-1.17-10.715c-2.743-4.253-5.007-5.023-7.563-4.871   c-3.141,0.187-7.744,5.749-9.484,8c-4.103-3.323-8.949-5.759-14.245-7.025c-0.134-0.067-0.28-0.113-0.44-0.113   c-0.009,0-0.017,0.005-0.026,0.005c-1.889-0.425-3.831-0.706-5.817-0.82c-0.01,0-0.018-0.005-0.027-0.005   c-0.004,0-0.008,0.002-0.012,0.002C43.09,0.024,42.408,0,41.721,0s-1.37,0.024-2.048,0.062c-0.004,0-0.008-0.002-0.012-0.002   c-0.01,0-0.018,0.005-0.027,0.005c-1.987,0.114-3.929,0.395-5.817,0.82c-0.009,0-0.016-0.005-0.026-0.005   c-0.16,0-0.306,0.046-0.44,0.113c-5.297,1.267-10.142,3.703-14.245,7.026c-1.728-2.236-6.339-7.813-9.484-8   C7.068-0.135,4.8,0.637,2.057,4.89c-2.848,4.414-2.229,8.915-1.17,10.715c1.396,2.374,6.23,4.59,8.124,5.387   c-1.959,4.252-3.11,8.946-3.262,13.89c-0.014,0.082-0.013,0.163-0.006,0.249C5.736,35.42,5.721,35.708,5.721,36   c0,18.981,10.704,31.134,29,33.548l-0.002,5.715c-8.956,3.057-28.511,13.778-32.99,49.613c-0.036,0.284,0.053,0.57,0.243,0.786   C2.16,125.877,2.434,126,2.721,126h12.974h0.005h52.043h0.005h12.974c0,0,0,0,0.001,0c0.038,0,0.076-0.002,0.114-0.007   c0.059-0.007,0.107-0.036,0.162-0.053c0.059-0.017,0.116-0.028,0.171-0.055c0.077-0.039,0.139-0.093,0.203-0.149   c0.031-0.028,0.072-0.042,0.1-0.074c0.006-0.007,0.007-0.016,0.013-0.023c0.07-0.083,0.118-0.18,0.158-0.281   c0.01-0.024,0.028-0.044,0.036-0.069c0.038-0.127,0.053-0.263,0.037-0.403c0-0.001-0.001-0.008-0.001-0.009c0,0,0,0,0-0.001   c0-0.001,0-0.003-0.001-0.004c-0.061-0.533-3.47-30.721,0.238-42.464c3.183-10.078,9.528-15.733,11.397-17.227   c0.567-0.454,0.979-1.037,1.189-1.686C94.973,62.153,95.242,59.493,92.139,56.745z M83.376,74.161l-1.705-1.202   c-0.733-0.51-1.598-0.779-2.5-0.779c-1.427,0-2.768,0.688-3.59,1.848c-1.375,1.974-0.894,4.705,1.077,6.092l3.224,2.253   c-0.383,1.337-0.69,2.854-0.928,4.513c-3.121-0.881-6.122-2.894-8.104-5.456c1.093-6.929,3.623-12.757,7.664-17.73   c0.74,1.758,1.662,3.245,2.714,4.351c1.165,1.227,2.572,2.187,4.176,2.888C84.72,71.918,84.038,72.992,83.376,74.161z    M80.531,80.387l-2.725-1.905c-1.07-0.754-1.333-2.238-0.59-3.304c0.724-1.021,2.295-1.285,3.308-0.581l1.904,1.342   C81.742,77.309,81.102,78.792,80.531,80.387z M78.321,116.826l-1.554,0.953c-0.637,0.391-1.393,0.512-2.131,0.333   c-0.737-0.177-1.36-0.626-1.751-1.263c-0.393-0.643-0.511-1.401-0.333-2.137c0.177-0.734,0.629-1.355,1.272-1.748l3.053-1.868   C77.406,112.911,77.889,114.819,78.321,116.826z M73.041,96.581c1.57,0.991,3.305,1.78,5.172,2.156   c-0.022,3.603,0.089,7.27,0.259,10.681C76.953,104.482,75.094,100.243,73.041,96.581z M78.242,96.706   c-3.093-0.741-5.843-2.874-7.997-4.816c-0.075-2.746,0.007-5.355,0.261-7.828c2.231,2.283,5.173,4.024,8.199,4.818   C78.443,91.32,78.299,93.975,78.242,96.706z M65.216,88.917l-0.892,1.911c-0.317,0.682-0.883,1.199-1.593,1.457   c-0.709,0.259-1.477,0.227-2.162-0.094c-0.676-0.312-1.192-0.873-1.451-1.58c-0.262-0.714-0.23-1.484,0.089-2.17l1.752-3.761   C62.38,85.91,63.809,87.318,65.216,88.917z M32.337,67.167c-1.251-1.745-8.589-12.445-8.589-23.14   c0-5.618,1.598-10.776,2.606-12.709c0.095-0.184,0.224-0.335,0.391-0.463c0.262-0.2,0.657-0.483,1.168-0.809   c0.848,1.557,1.904,2.797,3.233,3.732c0.17,0.119,0.371,0.182,0.575,0.182c0.071,0,0.143-0.008,0.213-0.023   c0.273-0.06,0.51-0.231,0.65-0.473c1.096-1.88,1.949-4.07,2.563-6.498c1.919-0.486,4.117-0.816,6.573-0.816s4.654,0.33,6.573,0.816   c0.614,2.428,1.468,4.619,2.563,6.498c0.141,0.241,0.377,0.413,0.65,0.473c0.071,0.016,0.142,0.023,0.213,0.023   c0.204,0,0.405-0.063,0.575-0.182c1.329-0.935,2.385-2.175,3.233-3.732c0.513,0.327,0.908,0.611,1.17,0.811   c0.166,0.125,0.292,0.275,0.389,0.46C58.106,33.26,59.721,38.42,59.721,44c0,10.59-7.358,21.4-8.613,23.166   C48.208,67.718,45.076,68,41.721,68C38.366,68,35.235,67.718,32.337,67.167z M29.633,29.057c0.913-0.476,2.001-0.968,3.261-1.412   c-0.408,1.361-0.899,2.629-1.479,3.78C30.724,30.777,30.136,29.989,29.633,29.057z M41.721,24.148   c-0.068,0-0.198-0.019-0.298-0.143l-3.648-4.554c-0.13-0.163-0.085-0.323-0.046-0.404c0.039-0.08,0.135-0.216,0.343-0.216h7.298   c0.208,0,0.305,0.136,0.343,0.216c0.039,0.081,0.084,0.241-0.046,0.404l-3.648,4.554C41.918,24.13,41.789,24.148,41.721,24.148z    M50.547,27.645c1.26,0.444,2.349,0.937,3.261,1.412c-0.503,0.932-1.091,1.719-1.782,2.367   C51.446,30.274,50.954,29.006,50.547,27.645z M75.629,33.628l-6.672-2.246c-0.601-0.201-1.089-0.628-1.375-1.204   c-0.286-0.577-0.333-1.228-0.134-1.825c0.417-1.226,1.757-1.944,3.043-1.516l4.34,1.464C75.233,30.031,75.502,31.809,75.629,33.628   z M74.711,45.358l-6.36-2.135c-1.252-0.424-1.931-1.791-1.514-3.042c0.33-0.976,1.251-1.631,2.293-1.631   c0.274,0,0.518,0.038,0.75,0.117l5.609,1.892C75.323,42.228,75.064,43.829,74.711,45.358z M73.94,2.015   c1.631-0.099,3.296,0.135,5.763,3.959c2.448,3.795,1.816,7.444,1.127,8.617c-0.996,1.694-5.116,3.69-7.287,4.603   c-0.889-1.676-1.902-3.277-3.034-4.784c2.982-1.123,5.223-2.69,6.821-4.777c0.335-0.438,0.252-1.066-0.187-1.401   c-0.438-0.335-1.065-0.253-1.402,0.187c-1.489,1.946-3.587,3.329-6.558,4.341c-1.032-1.218-2.139-2.371-3.322-3.442   C68.287,6.173,72.129,2.123,73.94,2.015z M44.781,2.144c1.312,0.118,2.605,0.304,3.87,0.568V6.31c0,1.064-0.866,1.931-1.93,1.931   c-1.07,0-1.94-0.866-1.94-1.931V2.144z M34.79,2.712c1.265-0.263,2.558-0.45,3.87-0.568V6.31c0,1.064-0.87,1.931-1.94,1.931   c-1.064,0-1.93-0.866-1.93-1.931V2.712z M2.611,14.591C1.922,13.418,1.29,9.769,3.738,5.974c2.468-3.827,4.14-4.057,5.763-3.959   c1.81,0.109,5.651,4.156,8.08,7.302c-1.183,1.071-2.29,2.224-3.322,3.442c-2.973-1.012-5.07-2.395-6.559-4.341   C7.365,7.979,6.738,7.896,6.299,8.231S5.776,9.194,6.112,9.633c1.598,2.088,3.84,3.655,6.821,4.777   c-1.133,1.507-2.146,3.107-3.035,4.784C7.778,18.305,3.613,16.295,2.611,14.591z M7.951,40.564l5.614-1.898   c0.227-0.078,0.471-0.116,0.745-0.116c1.042,0,1.963,0.655,2.292,1.627c0.418,1.255-0.26,2.622-1.51,3.045L8.73,45.359   C8.377,43.831,8.118,42.232,7.951,40.564z M8.61,28.301l4.337-1.463c1.304-0.432,2.63,0.29,3.045,1.509   c0.202,0.604,0.154,1.254-0.132,1.831c-0.286,0.576-0.775,1.003-1.378,1.204l-6.669,2.246C7.939,31.809,8.208,30.031,8.61,28.301z    M9.235,47.282l6.497-2.164c2.292-0.776,3.534-3.276,2.767-5.577c-0.604-1.788-2.288-2.99-4.188-2.99   c-0.492,0-0.961,0.075-1.389,0.223l-5.128,1.729C7.75,37.681,7.721,36.851,7.721,36c0-0.079,0.005-0.156,0.006-0.234l7.39-2.487   c1.11-0.369,2.01-1.154,2.535-2.211c0.523-1.054,0.608-2.244,0.236-3.359c-0.761-2.236-3.244-3.544-5.577-2.766l-3.083,1.04   C12.647,14.918,21.574,6.256,32.79,3.198V6.31c0,2.167,1.763,3.931,3.93,3.931c2.172,0,3.94-1.764,3.94-3.931V2.027   C41.013,2.016,41.365,2,41.721,2s0.707,0.016,1.06,0.027V6.31c0,2.167,1.768,3.931,3.94,3.931c2.167,0,3.93-1.764,3.93-3.931V3.198   c11.216,3.057,20.144,11.72,23.562,22.784l-3.086-1.041c-2.315-0.771-4.811,0.528-5.575,2.772c-0.37,1.109-0.285,2.3,0.238,3.354   c0.525,1.057,1.425,1.842,2.532,2.21l7.393,2.489c0.001,0.078,0.006,0.155,0.006,0.234c0,0.852-0.03,1.682-0.073,2.503   l-5.122-1.729c-0.434-0.148-0.903-0.224-1.395-0.224c-1.9,0-3.583,1.202-4.189,2.994c-0.766,2.297,0.476,4.797,2.771,5.574   l6.49,2.178c-2.889,9.824-9.847,16.43-20.23,19.21c2.596-4.025,7.749-13.185,7.749-22.506c0-5.981-1.711-11.417-2.861-13.61   c-0.232-0.443-0.553-0.822-0.951-1.125c-1.412-1.075-6.243-4.32-13.546-4.987l2.865-3.576c0.578-0.721,0.688-1.687,0.289-2.52   s-1.223-1.351-2.146-1.351h-7.298c-0.924,0-1.747,0.518-2.146,1.351s-0.29,1.799,0.289,2.52l2.865,3.576   c-7.303,0.667-12.134,3.911-13.547,4.987c-0.401,0.307-0.722,0.687-0.952,1.13c-1.138,2.183-2.832,7.615-2.832,13.633   c0,9.38,5.122,18.472,7.717,22.477C19.079,63.723,12.121,57.112,9.235,47.282z M31.434,80.632c0.318,0.683,0.351,1.451,0.092,2.164   s-0.776,1.28-1.458,1.598c-1.408,0.656-3.091,0.044-3.751-1.366l-0.46-0.987c1.703-1.193,3.346-2.15,4.873-2.922L31.434,80.632z    M16.847,90.557l1.647,3.525c0.658,1.413,0.045,3.101-1.366,3.762c-1.407,0.657-3.092,0.042-3.75-1.363l-0.267-0.577   C14.308,93.933,15.562,92.159,16.847,90.557z M16.992,116.947l1.476-0.449c0.874-0.263,1.795,0.23,2.057,1.105   c0.052,0.169,0.076,0.32,0.076,0.477c0,0.719-0.48,1.365-1.171,1.573l-2.64,0.805C16.832,119.301,16.901,118.124,16.992,116.947z    M25.721,114.177c0-13.462,7.178-24.414,16-24.414s16,10.952,16,24.414c0,3.355-0.487,6.727-1.378,9.823H27.109   C26.211,120.885,25.721,117.512,25.721,114.177z M68.731,124c-0.055-5.496-0.38-12.168-2.061-17.251   c-0.173-0.524-0.739-0.806-1.263-0.635c-0.524,0.173-0.809,0.739-0.635,1.264c1.595,4.82,1.906,11.278,1.96,16.622h-8.319   c0.842-3.122,1.309-6.481,1.309-9.823c0-14.564-8.075-26.414-18-26.414s-18,11.85-18,26.414c0,3.325,0.47,6.684,1.319,9.823H16.71   c0.005-0.473,0.011-0.944,0.02-1.433l3.279-1c1.526-0.46,2.591-1.894,2.591-3.487c0-0.356-0.054-0.704-0.162-1.058   c-0.577-1.924-2.615-3.015-4.549-2.439l-0.694,0.211c0.291-2.639,0.743-5.204,1.475-7.416c0.174-0.524-0.111-1.091-0.635-1.264   c-0.525-0.173-1.09,0.11-1.263,0.635c-0.918,2.775-1.429,6.029-1.716,9.305c-0.004,0.025-0.004,0.05-0.006,0.075   c-0.234,2.7-0.315,5.398-0.34,7.87H3.86c1.496-11.002,4.458-19.49,8.061-26.044c0.909,1.364,2.44,2.15,4.026,2.15   c0.681,0,1.372-0.145,2.027-0.45c2.409-1.128,3.456-4.007,2.333-6.418l-2.041-4.37c1.969-2.231,3.982-4.081,5.952-5.61l0.288,0.618   c0.82,1.751,2.565,2.781,4.382,2.781c0.68,0,1.371-0.145,2.026-0.45c1.166-0.543,2.051-1.512,2.493-2.728   c0.441-1.214,0.385-2.524-0.158-3.69l-0.711-1.528c1.299-0.573,2.478-1.003,3.484-1.323c0.425-0.135,0.683-0.529,0.683-0.953h0.014   l0.002-6.214c1.615,0.147,3.278,0.23,5,0.23c1.722,0,3.385-0.083,5-0.23l-0.002,6.214h0.014c0,0.424,0.258,0.818,0.683,0.953   c2.935,0.932,7.32,2.805,11.949,6.432l-1.97,4.227c-0.546,1.171-0.601,2.486-0.154,3.703c0.444,1.211,1.329,2.172,2.487,2.706   c0.647,0.302,1.337,0.453,2.031,0.453c0.557,0,1.116-0.098,1.656-0.294c1.212-0.441,2.178-1.327,2.721-2.492l0.497-1.065   c3.675,4.594,7.099,10.616,9.641,18.51l-3.496,2.139c-1.099,0.671-1.87,1.731-2.173,2.986c-0.303,1.254-0.1,2.55,0.573,3.65   c0.672,1.094,1.734,1.861,2.99,2.163c0.379,0.091,0.762,0.136,1.142,0.136c0.878,0,1.74-0.241,2.502-0.71l0.93-0.57   c0.312,1.638,0.599,3.322,0.839,5.087H68.731z M92.635,62.877c-0.09,0.276-0.275,0.532-0.536,0.741   c-0.985,0.786-3.142,2.664-5.473,5.656c-1.535-0.605-2.87-1.467-3.947-2.601c-1.062-1.118-1.973-2.745-2.674-4.695   c1.285-1.394,2.684-2.725,4.232-3.983c0.135-0.108,3.349-2.607,6.576,0.248C92.95,60.135,92.983,61.807,92.635,62.877z"/></g><text x="0" y="141" fill="#000000" font-size="5px" font-weight="bold" font-family="'Helvetica Neue', Helvetica, Arial-Unicode, Arial, Sans-serif">Created by Amethyst Studio</text><text x="0" y="146" fill="#000000" font-size="5px" font-weight="bold" font-family="'Helvetica Neue', Helvetica, Arial-Unicode, Arial, Sans-serif">from the Noun Project</text></svg>