<svg xmlns="http://www.w3.org/2000/svg" viewBox="0 0 100 125" x="0px" y="0px"><title>Noun_Project_50Icon_5px_grid</title><g data-name="Capa 2"><path d="M69.47,71.3H61.73c0-2.39,0-3.26,0-3.68v-.35a16.91,16.91,0,0,1,7.48-14,1.94,1.94,0,0,0,.64-2.51A20.78,20.78,0,0,0,56.59,40.25a14.2,14.2,0,0,0,5.79-7.84,2.17,2.17,0,0,0,.07-.24,12.83,12.83,0,0,0,.49-3.45A11.78,11.78,0,0,0,51.37,17H51.3A11.78,11.78,0,0,0,39.73,28.72a14.24,14.24,0,0,0,6.41,11.57,20.39,20.39,0,0,0-5.79,2.51,20.82,20.82,0,0,0-7.52,8.3,2,2,0,0,0,.62,2.46,16.92,16.92,0,0,1,7.26,13.89v.26c0,.34,0,1.16,0,3.59H33.2a1.92,1.92,0,0,0-1.93,1.93v7.84A1.92,1.92,0,0,0,33.2,83H69.47a1.93,1.93,0,0,0,1.94-1.93V73.23A1.93,1.93,0,0,0,69.47,71.3ZM65.56,51.1a20.75,20.75,0,0,0-7.72,16.17v.38c0,.42,0,1.28,0,3.65H44.57c0-2.42,0-3.22,0-3.57v-.28A20.93,20.93,0,0,0,44,62.62,36,36,0,0,0,58,52.25,37.29,37.29,0,0,0,61.72,47,16.86,16.86,0,0,1,65.56,51.1ZM51.34,20.87a8,8,0,0,1,7.5,6,9.2,9.2,0,0,0-4.61-1.27,15.35,15.35,0,0,1-2.5-.33,9.45,9.45,0,0,1-4-2.41c-.23-.22-.44-.43-.64-.64A7.88,7.88,0,0,1,51.34,20.87Zm-7.73,7.85a7.43,7.43,0,0,1,.92-3.64A14,14,0,0,0,50.82,29a17.38,17.38,0,0,0,3.12.43c2,.15,3,.23,4.49,2.53-1.18,3.14-3.9,5.94-7.09,6C47.05,37.89,43.61,32.86,43.61,28.72ZM37.07,51.45A16.94,16.94,0,0,1,58.39,45,33.81,33.81,0,0,1,55,49.87,32.3,32.3,0,0,1,42.77,59,20.79,20.79,0,0,0,37.07,51.45ZM67.54,79.13H35.14v-4h32.4Z"/></g></svg>